<?xml version="1.0" encoding="UTF-8"?>
<svg id="Layer_1" xmlns="http://www.w3.org/2000/svg" version="1.1" viewBox="0 0 224 224">
  <!-- Generator: Adobe Illustrator 29.4.0, SVG Export Plug-In . SVG Version: 2.1.0 Build 152)  -->
  <path d="M171.45,182.95c1.53.63,2.71.01,4.09-.01,2.79-.05,5.6.07,8.38.01v4.92h-37.42V41.83s-21.66,6.4-21.66,6.4l20.52-10.69,26.09,6.75v138.66Z"/>
  <polygon points="135.67 79.57 135.67 187.87 110.39 187.87 110.39 77.27 89.38 83.83 109.26 73 135.67 79.57"/>
  <polygon points="100.21 113.7 100.21 187.87 75.26 187.87 75.26 111.41 53.6 118.29 74.11 107.44 100.21 113.7"/>
  <polygon points="144.2 45.11 144.2 187.87 142.23 187.69 142.21 45.91 142.27 45.48 144.2 45.11"/>
  <polygon points="139.93 46.42 139.93 187.87 137.96 187.87 137.96 46.75 139.93 46.42"/>
  <polygon points="106.45 187.87 106.45 81.38 107.93 80.57 108.42 81.05 108.42 187.38 106.45 187.87"/>
  <path d="M102.18,187.87v-105.68l1.49-.25c.89.14.13,2.25.13,3.02.31,33.93.4,67.8.36,101.77.07,1.31-.94,1.19-1.99,1.13Z"/>
  <path d="M55.9,187.87h-15.76c.22-1.56-.53-3.69.49-4.92h13.3v-62.19l1.97-.82v67.94Z"/>
  <polygon points="60.16 187.87 58.19 187.87 58.19 119.28 60.16 118.63 60.16 187.87"/>
  <path d="M71.32,115.34l1.97-.32c.16.12-.33.42-.33.49v72.37h-1.64v-72.53Z"/>
  <polygon points="68.7 116.33 68.7 187.87 67.06 187.87 67.06 116.66 68.7 116.33"/>
  <polygon points="64.43 117.64 64.43 187.87 62.79 187.87 62.79 118.13 63.33 117.68 64.43 117.64"/>
  <polygon points="135.67 47.74 135.67 77.6 133.68 77.06 133.67 48.54 133.89 48.03 135.67 47.74"/>
  <path d="M99.56,83.18v28.55l-1.45-.29c-.46-9.14-.04-18.5-.21-27.73l1.66-.53Z"/>
  <path d="M91.02,85.81v23.96c-.73-.41-1.9-.14-1.97-1.14l-.02-21.36c-.05-1.11,1.01-1.49,1.99-1.46Z"/>
  <polygon points="131.07 76.62 129.41 76.1 129.41 49.86 129.48 49.43 131.07 48.72 131.07 76.62"/>
  <path d="M95.29,84.49v26.26l-1.6-.37c-.11-8.44.01-16.91-.06-25.35l1.66-.53Z"/>
  <polygon points="126.8 50.36 126.8 75.3 125.16 75.3 125.16 50.85 125.7 50.41 126.8 50.36"/>
</svg>