<?xml version="1.0" encoding="UTF-8"?>
<svg id="Layer_1" xmlns="http://www.w3.org/2000/svg" xmlns:xlink="http://www.w3.org/1999/xlink" version="1.1" viewBox="0 0 224 224">
  <!-- Generator: Adobe Illustrator 29.4.0, SVG Export Plug-In . SVG Version: 2.1.0 Build 152)  -->
  <defs>
    <style>
      .st0 {
        fill: none;
      }

      .st1 {
        fill: #929292;
      }

      .st2 {
        fill: #b4b4b4;
      }

      .st3 {
        clip-path: url(#clippath-1);
      }

      .st4 {
        fill: #b7b7b7;
      }

      .st5 {
        fill: #fff;
      }

      .st6 {
        fill: #acacac;
      }

      .st7 {
        opacity: .5;
      }

      .st8 {
        clip-path: url(#clippath);
      }
    </style>
    <clipPath id="clippath">
      <path class="st0" d="M139.37,73.91c10.78,3.74,19.28,10.82,23.39,20.72,9.19,22.19-7.25,50.07-36.72,62.28-29.47,12.21-60.81,4.12-70-18.07-4.1-9.9-3.1-20.92,1.88-31.18-7.96,12.8-10.27,27.17-5.02,39.86,10.18,24.58,44.9,33.53,77.54,20.01,32.64-13.52,50.85-44.41,40.67-68.98-5.26-12.69-17.05-21.21-31.73-24.63h0Z"/>
    </clipPath>
    <clipPath id="clippath-1">
      <path class="st0" d="M65.3,87.77h40.6v43.58h-40.6v-43.58ZM109.51,84.16h40.6v-34h-40.6v34Z"/>
    </clipPath>
  </defs>
  <path class="st4" d="M126.45,167.64c6.23-1.36,11.98-4.1,16.39-9.59,4.69-5.84,7.27-13.19,7.27-20.68v-2.41h-40.6v34c5.64,0,11.48-.13,16.94-1.33h0Z"/>
  <rect class="st6" x="109.51" y="87.77" width="40.6" height="43.58"/>
  <rect class="st4" x="109.51" y="50.17" width="40.6" height="34"/>
  <rect class="st4" x="65.3" y="87.77" width="40.6" height="43.58"/>
  <rect class="st6" x="65.3" y="134.97" width="40.6" height="34"/>
  <path class="st5" d="M137.54,111.28c0,4.27-3.46,7.73-7.73,7.73,4.27,0,7.73,3.46,7.73,7.73,0-4.27,3.46-7.73,7.73-7.73-4.27,0-7.73-3.46-7.73-7.73Z"/>
  <path class="st5" d="M124.82,103.26c0,1.75-1.42,3.18-3.18,3.18,1.75,0,3.18,1.42,3.18,3.18,0-1.75,1.42-3.18,3.18-3.18-1.75,0-3.18-1.42-3.18-3.18Z"/>
  <path class="st5" d="M94.3,148.79c0,1.75-1.42,3.18-3.18,3.18,1.75,0,3.18,1.42,3.18,3.18,0-1.75,1.42-3.18,3.18-3.18-1.75,0-3.18-1.42-3.18-3.18Z"/>
  <path class="st1" d="M157.13,101.01c0,3-2.43,5.42-5.42,5.42,3,0,5.42,2.43,5.42,5.42,0-3,2.43-5.42,5.42-5.42-3,0-5.42-2.43-5.42-5.42Z"/>
  <path class="st2" d="M88.96,51.5c-6.23,1.36-11.98,4.1-16.39,9.59-4.69,5.84-7.27,13.19-7.27,20.68v2.41h40.6v-34c-5.64,0-11.48.13-16.94,1.33h0Z"/>
  <g>
    <path class="st1" d="M139.37,73.91c10.78,3.74,19.28,10.82,23.39,20.72,9.19,22.19-7.25,50.07-36.72,62.28-29.47,12.21-60.81,4.12-70-18.07-4.1-9.9-3.1-20.92,1.88-31.18-7.96,12.8-10.27,27.17-5.02,39.86,10.18,24.58,44.9,33.53,77.54,20.01,32.64-13.52,50.85-44.41,40.67-68.98-5.26-12.69-17.05-21.21-31.73-24.63h0Z"/>
    <g class="st8">
      <path class="st2" d="M137.41,69.57c10.78,3.74,19.28,10.82,23.39,20.72,9.19,22.19-7.25,50.07-36.72,62.28-29.47,12.21-60.81,4.12-70-18.07-4.1-9.9-3.1-20.92,1.88-31.18-7.96,12.8-10.27,27.17-5.02,39.86,10.18,24.58,44.9,33.53,77.54,20.01,32.64-13.52,50.85-44.41,40.67-68.98-5.26-12.69-17.05-21.21-31.73-24.63h0Z"/>
    </g>
  </g>
  <path class="st5" d="M85.7,67.17c0,3-2.43,5.42-5.42,5.42,3,0,5.42,2.43,5.42,5.42,0-3,2.43-5.42,5.42-5.42-3,0-5.42-2.43-5.42-5.42Z"/>
  <rect class="st4" x="109.51" y="50.17" width="40.6" height="34"/>
  <g class="st7">
    <g class="st3">
      <path class="st5" d="M26.84,153.54c8.07,5.53,15.56,12.69,26.02,12.31,8.33-.29,19-5.15,24.34-11.7,8.71-10.7,2-25.06,6.5-36.9,6.37-16.79,26.83-23.31,40.93-31.77,7.35-4.41,13.85-7.55,17.03-15.9,3.52-9.22,3.17-19.41,1.25-28.95l-9.99,2.93c0,9.72-1.67,19.79-6.94,28.13-4.77,7.55-11.75,9.35-19.83,12.22-15.5,5.51-36.85,7.86-46.41,23.06-6.74,10.72-3,26.12-13.66,34.89-6.53,5.37-17.95,8.02-26.17,6.65-10.32-1.7-16.25-10.2-23.07-17.21l30.01,22.23h-.02Z"/>
    </g>
  </g>
</svg>