<?xml version="1.0" encoding="UTF-8"?>
<svg id="Layer_1" xmlns="http://www.w3.org/2000/svg" xmlns:xlink="http://www.w3.org/1999/xlink" version="1.1" viewBox="0 0 224 224">
  <!-- Generator: Adobe Illustrator 29.4.0, SVG Export Plug-In . SVG Version: 2.1.0 Build 152)  -->
  <defs>
    <style>
      .st0 {
        mask: url(#mask);
      }

      .st1 {
        fill: url(#linear-gradient2);
      }

      .st2 {
        fill: url(#linear-gradient1);
      }

      .st3 {
        mask: url(#mask-1);
      }

      .st4 {
        fill: #e8e872;
      }

      .st4, .st5, .st6 {
        fill-rule: evenodd;
      }

      .st5 {
        fill: #326a61;
      }

      .st6 {
        fill: url(#linear-gradient);
      }
    </style>
    <linearGradient id="linear-gradient" x1="-742.37" y1="-68.19" x2="-674.85" y2="-11.89" gradientTransform="translate(1299.04 34.16) scale(1.66 -1.66)" gradientUnits="userSpaceOnUse">
      <stop offset="0" stop-color="#459a91"/>
      <stop offset="1" stop-color="#f9f292"/>
    </linearGradient>
    <linearGradient id="linear-gradient1" x1="-722.11" y1="-49.39" x2="-765.27" y2="-85.5" gradientTransform="translate(1299.04 34.16) scale(1.66 -1.66)" gradientUnits="userSpaceOnUse">
      <stop offset="0" stop-color="#fff"/>
      <stop offset="1" stop-color="#fff" stop-opacity="0"/>
    </linearGradient>
    <mask id="mask" x="32.28" y="77.3" width="114.07" height="100.99" maskUnits="userSpaceOnUse">
      <g id="id200">
        <rect class="st2" x="32.28" y="77.3" width="114.07" height="100.99"/>
      </g>
    </mask>
    <linearGradient id="linear-gradient2" x1="-695.05" y1="12.2" x2="-715.7" y2="-38.83" xlink:href="#linear-gradient1"/>
    <mask id="mask-1" x="45.71" y="32.28" width="146.01" height="109.58" maskUnits="userSpaceOnUse">
      <g id="id202">
        <rect class="st1" x="45.71" y="32.28" width="146.01" height="109.58"/>
      </g>
    </mask>
  </defs>
  <path class="st6" d="M168.46,82.14l9.12-13.51c.82-1.22,1.04-2.74,0-3.78l-9.22-9.22-9.21-9.22c-1.04-1.04-2.56-.82-3.78,0l-13.51,9.12c-3.5-1.85-7.19-3.4-11.04-4.58l-3.1-16c-.28-1.44-1.2-2.68-2.67-2.68h-26.07c-1.47,0-2.39,1.23-2.67,2.68l-3.1,16c-3.85,1.18-7.54,2.73-11.04,4.58l-13.51-9.12c-1.22-.82-2.74-1.04-3.78,0l-9.22,9.22-9.21,9.22c-1.04,1.04-.82,2.56,0,3.78l9.12,13.51c-1.86,3.5-3.4,7.2-4.58,11.04l-16,3.1c-1.44.28-2.67,1.2-2.67,2.67v26.07c0,1.47,1.23,2.39,2.67,2.67l16,3.1c1.19,3.85,2.73,7.55,4.58,11.05l-9.12,13.51c-.82,1.22-1.04,2.74,0,3.78l9.22,9.22,9.21,9.21c1.04,1.04,2.56.82,3.78,0l13.51-9.12c3.5,1.86,7.19,3.4,11.04,4.58l3.1,16c.28,1.44,1.2,2.67,2.67,2.67h26.07c1.47,0,2.39-1.23,2.67-2.67l3.1-16c3.85-1.18,7.55-2.72,11.05-4.58l13.51,9.12c1.22.82,2.74,1.04,3.78,0l9.21-9.21,9.22-9.22c1.04-1.04.82-2.56,0-3.78l-9.12-13.51c1.85-3.5,3.4-7.19,4.58-11.04l16-3.1c1.45-.28,2.68-1.2,2.68-2.67v-26.07c0-1.47-1.23-2.39-2.68-2.67l-16-3.1c-1.19-3.85-2.73-7.54-4.58-11.05h0ZM112,77.66c18.96,0,34.34,15.38,34.34,34.34s-15.38,34.34-34.34,34.34-34.34-15.37-34.34-34.34,15.37-34.34,34.34-34.34h0Z"/>
  <g class="st0">
    <path class="st5" d="M112,146.34c-18.96,0-34.34-15.37-34.34-34.34s15.37-34.34,34.34-34.34c0,0-28.07-4.09-61.04,15.53l-16,3.1c-1.44.28-2.67,1.2-2.67,2.67v26.07c0,1.47,1.23,2.39,2.67,2.67l16,3.1c1.19,3.85,2.72,7.55,4.58,11.05l-9.12,13.51c-.82,1.22-1.04,2.74,0,3.78l9.22,9.22,9.21,9.21c1.04,1.04,2.56.82,3.78,0l13.51-9.12c66.29-11.84,64.19-56.46,64.19-56.46,0,18.96-15.38,34.34-34.34,34.34h0Z"/>
  </g>
  <g class="st3">
    <path class="st4" d="M55.54,82.14c47.13-39.98,121.81-12.71,112.92,59.71,1.85-3.5,3.4-7.19,4.58-11.04l16-3.1c1.45-.28,2.68-1.2,2.68-2.67v-26.07c0-1.47-1.23-2.39-2.68-2.67l-16-3.1c-1.19-3.85-2.73-7.54-4.58-11.05l9.12-13.51c.82-1.22,1.04-2.74,0-3.78l-9.22-9.22-9.21-9.22c-1.04-1.04-2.56-.82-3.78,0l-13.51,9.12c-3.5-1.85-7.19-3.4-11.04-4.58l-3.1-16c-.28-1.44-1.2-2.68-2.67-2.68h-26.07c-1.47,0-2.39,1.23-2.67,2.68l-3.1,16c-3.85,1.18-7.54,2.73-11.04,4.58l-13.51-9.12c-1.22-.82-2.74-1.04-3.78,0l-9.22,9.22-9.21,9.22c-1.04,1.04-.82,2.56,0,3.78l9.12,13.51h0Z"/>
  </g>
</svg>