<?xml version="1.0" encoding="UTF-8"?>
<svg id="Layer_1" xmlns="http://www.w3.org/2000/svg" version="1.1" viewBox="0 0 224 224">
  <!-- Generator: Adobe Illustrator 29.4.0, SVG Export Plug-In . SVG Version: 2.1.0 Build 152)  -->
  <polygon points="22.9 164.99 83.1 104.88 185.59 164.99 123.46 164.99 83.46 125.25 43.11 164.99 22.9 164.99"/>
  <path d="M200.56,164.5c-.09.86-2.72.58-3.25.5-.82-.13-1.56-.25-2.26-.73l-100.78-59.43,3.71.03,102.58,59.64Z"/>
  <path d="M108.73,160.51c-.94.22-1.19-.52-1.75-.99-8.16-6.85-15.34-16.32-23.52-23.33l-24.11,23.6-2.02.72,25.7-25.84,25.7,25.84Z"/>
  <polygon points="89.27 161.51 83.78 161.51 84 156.5 88.8 156.26 89.27 161.51"/>
  <rect x="83.78" y="149.57" width="5.49" height="4.98"/>
  <rect x="77.29" y="156.04" width="5" height="5.47"/>
  <rect x="77.29" y="149.57" width="5" height="4.98"/>
</svg>