<?xml version="1.0" encoding="UTF-8"?>
<svg xmlns="http://www.w3.org/2000/svg" xmlns:xlink="http://www.w3.org/1999/xlink" version="1.1" viewBox="0 0 224 224">
  <!-- Generator: Adobe Illustrator 29.4.0, SVG Export Plug-In . SVG Version: 2.1.0 Build 152)  -->
  <defs>
    <style>
      .st0 {
        fill: url(#linear-gradient1);
      }

      .st1 {
        fill: url(#linear-gradient3);
      }

      .st2 {
        fill: url(#linear-gradient5);
      }

      .st3 {
        fill: url(#linear-gradient4);
      }

      .st4 {
        fill: url(#linear-gradient);
      }

      .st5 {
        isolation: isolate;
      }

      .st6 {
        fill: url(#linear-gradient2);
        mix-blend-mode: overlay;
        opacity: .6;
      }
    </style>
    <linearGradient id="linear-gradient" x1="48.9" y1="45.61" x2="156.43" y2="159.72" gradientUnits="userSpaceOnUse">
      <stop offset="0" stop-color="#71c053"/>
      <stop offset="1" stop-color="#5aba47"/>
    </linearGradient>
    <linearGradient id="linear-gradient1" x1="71.36" y1="67.49" x2="161.44" y2="163.09" gradientUnits="userSpaceOnUse">
      <stop offset="0" stop-color="#5cba47"/>
      <stop offset="1" stop-color="#10924a"/>
    </linearGradient>
    <linearGradient id="linear-gradient2" x1="81.76" y1="51.62" x2="111.6" y2="83.28" gradientUnits="userSpaceOnUse">
      <stop offset="0" stop-color="#6cbe47"/>
      <stop offset=".5" stop-color="#4cb748"/>
      <stop offset="1" stop-color="#10924a"/>
    </linearGradient>
    <linearGradient id="linear-gradient3" x1="144.64" y1="34.86" x2="97.04" y2="79.71" gradientTransform="translate(0 121.54) rotate(-29.46) scale(1.15 .87) skewX(-23.18)" gradientUnits="userSpaceOnUse">
      <stop offset="0" stop-color="#c0e0b3"/>
      <stop offset="1" stop-color="#96cd80"/>
    </linearGradient>
    <linearGradient id="linear-gradient4" x1="143.92" y1="24.48" x2="97.76" y2="67.98" xlink:href="#linear-gradient3"/>
    <linearGradient id="linear-gradient5" x1="150.18" y1="54.65" x2="91.5" y2="109.94" xlink:href="#linear-gradient3"/>
  </defs>
  <g class="st5">
    <g id="Layer_1">
      <g>
        <path class="st4" d="M152.16,163.75H53.18V41.58h98.98v122.17ZM59.39,157.55h86.56V47.79H59.39v109.76Z"/>
        <polygon class="st0" points="133.16 182.42 71.51 182.42 71.51 58.27 170.82 58.27 170.82 158.14 133.16 182.42"/>
        <polygon class="st6" points="71.51 95.36 71.51 58.27 139.5 58.27 71.51 95.36"/>
        <g>
          <polygon class="st1" points="78.61 137.3 78.61 131.55 163.06 83.85 163.06 89.6 78.61 137.3"/>
          <polygon class="st3" points="78.61 124.8 78.61 121.93 163.06 74.23 163.06 77.1 78.61 124.8"/>
          <polygon class="st2" points="78.61 173.4 78.61 145.46 163.06 97.76 163.06 125.71 78.61 173.4"/>
        </g>
      </g>
    </g>
  </g>
</svg>