<?xml version="1.0" encoding="UTF-8"?>
<svg id="Layer_1" xmlns="http://www.w3.org/2000/svg" xmlns:xlink="http://www.w3.org/1999/xlink" version="1.1" viewBox="0 0 224 224">
  <!-- Generator: Adobe Illustrator 29.4.0, SVG Export Plug-In . SVG Version: 2.1.0 Build 152)  -->
  <defs>
    <style>
      .st0 {
        fill: url(#linear-gradient1);
      }

      .st1 {
        fill: url(#linear-gradient);
      }
    </style>
    <linearGradient id="linear-gradient" x1="31.97" y1="112.01" x2="192.05" y2="112.01" gradientUnits="userSpaceOnUse">
      <stop offset="0" stop-color="#c6c5c4"/>
      <stop offset=".23" stop-color="#7d7d7d"/>
      <stop offset=".41" stop-color="#aeaeaf"/>
      <stop offset=".59" stop-color="#777677"/>
      <stop offset=".77" stop-color="#4a4a4a"/>
      <stop offset="1" stop-color="#b9b8b9"/>
      <stop offset="1" stop-color="#c2c2c2"/>
    </linearGradient>
    <linearGradient id="linear-gradient1" x1="99.78" y1="135.43" x2="124.5" y2="135.43" xlink:href="#linear-gradient"/>
  </defs>
  <path class="st1" d="M65.42,60.17c-.12.72-.77,1.66-1.56,1.75l-14.46.41-1.42,1.55c-.1,16.21-1.03,33.15,5.38,48.33.73.14.42-.31.54-.77,1.3-5.01-.27-14.91-.39-20.53-.14-6.37-.56-15.01,0-21.17.15-1.67.44-2.18,2.19-2.43,3.03-.43,12.12.81,14-.87,1.64-1.46.67-3.96.66-5.59-.05-4.27.15-8.41.37-12.57.05-1-.6-2.33.39-3.39.51-.54,9.55-3.66,11.27-4.42,7.39-3.29,14.99-7.97,21.18-13.18,1.46-1.23,6.14-6.22,7.2-6.68s1.63-.32,2.54.26c1.95,1.24,5.27,5.25,7.46,7.08,5.62,4.68,12.1,8.63,18.77,11.63,2.33,1.05,11.64,4.05,12.64,5.21.64.75.73,1.54.82,2.49.51,5.51-.65,12.11-.02,17.53.14,1.23.54,1.99,1.81,2.16,2.56.34,6.73.19,9.58.33,1.42.07,4.67-.73,5.62.66.83,1.21.55,9.07.52,11.07-.12,8.54-.8,17.19-1.02,25.74-.06,2.48.07,4.97.02,7.45.96.17,1.51-.52,1.82-1.31,3.98-10.16,4.93-23.74,4.11-34.52-.61-3.41.84-8.73.27-11.83-.16-.88-.63-1.77-1.48-2.16l-14.45-.43c-.79.08-1.51-.75-1.51-1.45v-13.88c0-1.5,4.5-.26,5.46-.17,9,.85,18.02,1.43,27.08,1.33l1.1.88c-.02,5.59.25,11.21.08,16.8-1.77,58.58-22.24,109.12-75.78,137.33-6.41,3.38-15.94-3.99-21.29-7.59-23.08-15.57-39.54-35.36-50.14-61.2-11.15-27.15-13.44-56.5-12.67-85.68.11-.34.38-.5.68-.64,1.57-.73,11.01-.14,13.63-.25,4.15-.17,8.41-.65,12.56-.99.89-.07,6.44-1.29,6.44.17-.49,4.07.66,9.68,0,13.55h0ZM155.21,95.43c-.98-1.38-4.16-.36-5.38-.38-1.85-.03-5.62-.11-7.25-.38-.49-.08-1.25-.38-1.53-.78-.9-1.27.17-12.26.04-14.91-1.61-31.88-41.26-41.63-54.99-13.66-4.48,9.13-2.23,18.61-3.02,28.37-.7,1.58-3.8.89-5.29.99-.9.06-1.68.35-2.61.36-3.07.04-6.94-1.8-6.82,3.12.02.78.47,2.83,1.24,3.09,3.46-.25,8.05.59,11.37-.09,3.88-.8,5.63-5.06,8.42-7.44,1.49-1.27,5.58-3.16,6.34-4.07,1.3-1.57-.62-4.14-1.13-5.79-2.58-8.42-.63-16.41,7-21.22,13.83-8.73,31.91,2.71,28.43,19.17-.37,1.74-2.43,5.87-2.1,7.02.14.5,6.33,4.64,7.5,5.75,1.48,1.39,4.09,5.58,5.57,5.98,1.58.43,11.23,1,12.74.66.53-.12,1.34-.61,1.5-1.15s.29-4.22,0-4.65h-.02ZM139.62,164.59c9.76-10.41,10.13-20.44,10.4-34.04.09-4.68.22-9.92,0-14.56-.07-1.41-.16-4.01-.36-5.25-.49-3.02-5.53-1.58-8.04-1.87-9.54-1.12-14.8-11.38-25.3-13.36-17.8-3.36-21.94,12.41-35.58,13.69-1.29.12-5.3-.26-5.91.36-1.46,1.49-.5,4.7-.47,6.44.27,19.04-3.5,37.58,13.2,51.23,15.96,13.05,37.77,12.64,52.07-2.62v-.02Z"/>
  <path class="st0" d="M120.81,136.87c-1.15,1.32-3.05,1.9-3.21,4.25-.21,3.13,1.91,8.88,2.02,12.24.04,1.39-.51,1.65-1.82,1.8-1.92.22-11.24.25-12.39-.83-1.8-1.69,1.21-10.73.58-13.8-.49-2.4-3.31-3.96-4.55-6.02-3.69-6.13-1.02-15.38,5.86-17.93,13.41-4.96,22.7,9.72,13.52,20.29h0Z"/>
</svg>