<?xml version="1.0" encoding="UTF-8"?>
<svg id="Layer_1" xmlns="http://www.w3.org/2000/svg" xmlns:xlink="http://www.w3.org/1999/xlink" version="1.1" viewBox="0 0 224 224">
  <!-- Generator: Adobe Illustrator 29.4.0, SVG Export Plug-In . SVG Version: 2.1.0 Build 152)  -->
  <defs>
    <style>
      .st0 {
        fill: url(#linear-gradient2);
      }

      .st1 {
        fill: url(#linear-gradient1);
      }

      .st2 {
        fill: url(#linear-gradient3);
      }

      .st3 {
        fill: url(#linear-gradient4);
      }

      .st4 {
        fill: url(#linear-gradient);
      }
    </style>
    <linearGradient id="linear-gradient" x1="127.24" y1="112.72" x2="193.63" y2="112.72" gradientUnits="userSpaceOnUse">
      <stop offset="0" stop-color="#d83a34"/>
      <stop offset=".24" stop-color="#d43933"/>
      <stop offset=".45" stop-color="#c93631"/>
      <stop offset=".65" stop-color="#b7322d"/>
      <stop offset=".85" stop-color="#9e2c28"/>
      <stop offset="1" stop-color="#852623"/>
    </linearGradient>
    <linearGradient id="linear-gradient1" x1="87.95" y1="124.74" x2="125.57" y2="124.74" xlink:href="#linear-gradient"/>
    <linearGradient id="linear-gradient2" x1="70.68" y1="152.5" x2="95.06" y2="152.5" xlink:href="#linear-gradient"/>
    <linearGradient id="linear-gradient3" x1="117.3" y1="152.51" x2="141.81" y2="152.51" xlink:href="#linear-gradient"/>
    <linearGradient id="linear-gradient4" x1="30.37" y1="166.21" x2="68.82" y2="166.21" xlink:href="#linear-gradient"/>
  </defs>
  <polygon class="st4" points="193.63 203.64 158.06 203.64 158.06 30.6 133.05 40.13 133.01 102.5 127.24 105.1 127.24 36.53 160.25 21.81 193.63 36.53 193.63 203.64"/>
  <path class="st1" d="M87.95,46.69c.02-.26.24-.49,0-.84l37.62,12.04v48.02s-10.19,4.5-10.19,4.5l-.49,93.24h-17.27l-.51-.51v-104.81l-9.15,3.39v-55.03Z"/>
  <polygon class="st0" points="70.68 203.64 70.74 112.11 94.87 101.36 95.06 203.64 70.68 203.64"/>
  <polygon class="st2" points="141.81 101.38 141.81 203.64 117.59 203.64 117.3 112.27 118.19 111.12 140.44 101.54 141.81 101.38"/>
  <path class="st3" d="M68.65,203.3h-16.6v-67.73l-16.94,7.96v60.11h-4.74v-63.16l26.28-11.68c.41-.09.77.05,1.16.15,1.74.46,6.86,2.92,8.69,3.85.6.31,2.05.86,2.31,1.41l-.17,69.08Z"/>
</svg>